<svg xmlns="http://www.w3.org/2000/svg" xmlns:xlink="http://www.w3.org/1999/xlink" width="1024" height="512">\n<path  d="M 0 0
L 1024 0
L 1024 512
L 0 512
L 0 0" style="stroke-width:0;stroke:rgba(255,255,255,1.0);fill:rgba(255,255,255,1.0)"/><path  d="M 20 46
L 949 46
L 949 417
L 20 417
L 20 46" style="stroke-width:0;stroke:rgba(255,255,255,1.0);fill:rgba(255,255,255,1.0)"/><path  d="M 36 396
L 96 396
L 96 417
L 36 417
L 36 396" style="stroke-width:3;stroke:rgba(106,195,203,1.0);fill:rgba(106,195,203,1.0)"/><path  d="M 129 396
L 189 396
L 189 417
L 129 417
L 129 396" style="stroke-width:3;stroke:rgba(42,190,137,1.0);fill:rgba(42,190,137,1.0)"/><path  d="M 222 396
L 282 396
L 282 417
L 222 417
L 222 396" style="stroke-width:3;stroke:rgba(110,128,139,1.0);fill:rgba(110,128,139,1.0)"/><path  d="M 315 417
L 375 417
L 375 417
L 315 417
L 315 417" style="stroke-width:3;stroke:rgba(240,174,90,1.0);fill:rgba(240,174,90,1.0)"/><path  d="M 408 107
L 468 107
L 468 417
L 408 417
L 408 107" style="stroke-width:3;stroke:rgba(0,116,217,1.0);fill:rgba(0,116,217,1.0)"/><path  d="M 501 210
L 561 210
L 561 417
L 501 417
L 501 210" style="stroke-width:3;stroke:rgba(0,217,101,1.0);fill:rgba(0,217,101,1.0)"/><path  d="M 594 375
L 654 375
L 654 417
L 594 417
L 594 375" style="stroke-width:3;stroke:rgba(217,0,116,1.0);fill:rgba(217,0,116,1.0)"/><path  d="M 687 46
L 747 46
L 747 417
L 687 417
L 687 46" style="stroke-width:3;stroke:rgba(0,217,210,1.0);fill:rgba(0,217,210,1.0)"/><path  d="M 780 107
L 840 107
L 840 417
L 780 417
L 780 107" style="stroke-width:3;stroke:rgba(217,101,0,1.0);fill:rgba(217,101,0,1.0)"/><path  d="M 873 107
L 933 107
L 933 417
L 873 417
L 873 107" style="stroke-width:3;stroke:rgba(106,195,203,1.0);fill:rgba(106,195,203,1.0)"/><path  d="M 20 417
L 949 417" style="stroke-width:0;stroke:rgba(51,51,51,1.0);fill:none"/><path  d="M 20 417
L 20 422" style="stroke-width:0;stroke:rgba(51,51,51,1.0);fill:none"/><text x="27" y="439" style="stroke-width:0;stroke:none;fill:rgba(51,51,51,1.0);font-size:12.8px;font-family:'Roboto Medium',sans-serif">29/July/2019</text><path  d="M 113 417
L 113 422" style="stroke-width:0;stroke:rgba(51,51,51,1.0);fill:none"/><text x="120" y="439" style="stroke-width:0;stroke:none;fill:rgba(51,51,51,1.0);font-size:12.8px;font-family:'Roboto Medium',sans-serif">28/July/2019</text><path  d="M 206 417
L 206 422" style="stroke-width:0;stroke:rgba(51,51,51,1.0);fill:none"/><text x="213" y="439" style="stroke-width:0;stroke:none;fill:rgba(51,51,51,1.0);font-size:12.8px;font-family:'Roboto Medium',sans-serif">27/July/2019</text><path  d="M 299 417
L 299 422" style="stroke-width:0;stroke:rgba(51,51,51,1.0);fill:none"/><text x="306" y="439" style="stroke-width:0;stroke:none;fill:rgba(51,51,51,1.0);font-size:12.8px;font-family:'Roboto Medium',sans-serif">26/July/2019</text><path  d="M 392 417
L 392 422" style="stroke-width:0;stroke:rgba(51,51,51,1.0);fill:none"/><text x="399" y="439" style="stroke-width:0;stroke:none;fill:rgba(51,51,51,1.0);font-size:12.8px;font-family:'Roboto Medium',sans-serif">25/July/2019</text><path  d="M 485 417
L 485 422" style="stroke-width:0;stroke:rgba(51,51,51,1.0);fill:none"/><text x="492" y="439" style="stroke-width:0;stroke:none;fill:rgba(51,51,51,1.0);font-size:12.8px;font-family:'Roboto Medium',sans-serif">24/July/2019</text><path  d="M 578 417
L 578 422" style="stroke-width:0;stroke:rgba(51,51,51,1.0);fill:none"/><text x="585" y="439" style="stroke-width:0;stroke:none;fill:rgba(51,51,51,1.0);font-size:12.8px;font-family:'Roboto Medium',sans-serif">23/July/2019</text><path  d="M 671 417
L 671 422" style="stroke-width:0;stroke:rgba(51,51,51,1.0);fill:none"/><text x="678" y="439" style="stroke-width:0;stroke:none;fill:rgba(51,51,51,1.0);font-size:12.8px;font-family:'Roboto Medium',sans-serif">22/July/2019</text><path  d="M 764 417
L 764 422" style="stroke-width:0;stroke:rgba(51,51,51,1.0);fill:none"/><text x="771" y="439" style="stroke-width:0;stroke:none;fill:rgba(51,51,51,1.0);font-size:12.8px;font-family:'Roboto Medium',sans-serif">21/July/2019</text><path  d="M 857 417
L 857 422" style="stroke-width:0;stroke:rgba(51,51,51,1.0);fill:none"/><text x="864" y="439" style="stroke-width:0;stroke:none;fill:rgba(51,51,51,1.0);font-size:12.8px;font-family:'Roboto Medium',sans-serif">20/July/2019</text><path  d="M 949 46
L 949 417" style="stroke-width:0;stroke:rgba(51,51,51,1.0);fill:none"/><path  d="M 949 417
L 954 417" style="stroke-width:0;stroke:rgba(51,51,51,1.0);fill:none"/><path  d="M 949 417
L 954 417" style="stroke-width:0;stroke:rgba(51,51,51,1.0);fill:none"/><text x="964" y="423" style="stroke-width:0;stroke:none;fill:rgba(51,51,51,1.0);font-size:12.8px;font-family:'Roboto Medium',sans-serif">27896.00</text><path  d="M 949 380
L 954 380" style="stroke-width:0;stroke:rgba(51,51,51,1.0);fill:none"/><text x="964" y="386" style="stroke-width:0;stroke:none;fill:rgba(51,51,51,1.0);font-size:12.8px;font-family:'Roboto Medium',sans-serif">27910.00</text><path  d="M 949 347
L 954 347" style="stroke-width:0;stroke:rgba(51,51,51,1.0);fill:none"/><text x="964" y="353" style="stroke-width:0;stroke:none;fill:rgba(51,51,51,1.0);font-size:12.8px;font-family:'Roboto Medium',sans-serif">27923.00</text><path  d="M 949 313
L 954 313" style="stroke-width:0;stroke:rgba(51,51,51,1.0);fill:none"/><text x="964" y="319" style="stroke-width:0;stroke:none;fill:rgba(51,51,51,1.0);font-size:12.8px;font-family:'Roboto Medium',sans-serif">27936.00</text><path  d="M 949 280
L 954 280" style="stroke-width:0;stroke:rgba(51,51,51,1.0);fill:none"/><text x="964" y="286" style="stroke-width:0;stroke:none;fill:rgba(51,51,51,1.0);font-size:12.8px;font-family:'Roboto Medium',sans-serif">27949.00</text><path  d="M 949 246
L 954 246" style="stroke-width:0;stroke:rgba(51,51,51,1.0);fill:none"/><text x="964" y="252" style="stroke-width:0;stroke:none;fill:rgba(51,51,51,1.0);font-size:12.8px;font-family:'Roboto Medium',sans-serif">27962.00</text><path  d="M 949 213
L 954 213" style="stroke-width:0;stroke:rgba(51,51,51,1.0);fill:none"/><text x="964" y="219" style="stroke-width:0;stroke:none;fill:rgba(51,51,51,1.0);font-size:12.8px;font-family:'Roboto Medium',sans-serif">27975.00</text><path  d="M 949 179
L 954 179" style="stroke-width:0;stroke:rgba(51,51,51,1.0);fill:none"/><text x="964" y="185" style="stroke-width:0;stroke:none;fill:rgba(51,51,51,1.0);font-size:12.8px;font-family:'Roboto Medium',sans-serif">27988.00</text><path  d="M 949 146
L 954 146" style="stroke-width:0;stroke:rgba(51,51,51,1.0);fill:none"/><text x="964" y="152" style="stroke-width:0;stroke:none;fill:rgba(51,51,51,1.0);font-size:12.8px;font-family:'Roboto Medium',sans-serif">28001.00</text><path  d="M 949 112
L 954 112" style="stroke-width:0;stroke:rgba(51,51,51,1.0);fill:none"/><text x="964" y="118" style="stroke-width:0;stroke:none;fill:rgba(51,51,51,1.0);font-size:12.8px;font-family:'Roboto Medium',sans-serif">28014.00</text><path  d="M 949 79
L 954 79" style="stroke-width:0;stroke:rgba(51,51,51,1.0);fill:none"/><text x="964" y="85" style="stroke-width:0;stroke:none;fill:rgba(51,51,51,1.0);font-size:12.8px;font-family:'Roboto Medium',sans-serif">28027.00</text><path  d="M 949 46
L 954 46" style="stroke-width:0;stroke:rgba(51,51,51,1.0);fill:none"/><text x="964" y="52" style="stroke-width:0;stroke:none;fill:rgba(51,51,51,1.0);font-size:12.8px;font-family:'Roboto Medium',sans-serif">28040.00</text><text x="453" y="33" style="stroke-width:0;stroke:none;fill:rgba(51,51,51,1.0);font-size:23.0px;font-family:'Roboto Medium',sans-serif">Gold Prices</text></svg>